<svg width="35" height="34" viewBox="0 0 35 34" fill="none" xmlns="http://www.w3.org/2000/svg">
<path d="M27.5683 12.2403C27.0915 12.2403 26.7048 12.6269 26.7048 13.1037V28.8712C26.7048 30.5374 25.3489 31.8933 23.6827 31.8933H4.74909C3.08287 31.8933 1.72696 30.5373 1.72696 28.8712V9.93743C1.72696 8.27121 3.08287 6.91537 4.74909 6.91537H23.6827C24.1596 6.91537 24.5462 6.52876 24.5462 6.05192C24.5462 5.57508 24.1596 5.18848 23.6827 5.18848H4.74909C2.1304 5.18848 0 7.3188 0 9.93743V28.8712C0 31.4898 2.1304 33.6202 4.74909 33.6202H23.6827C26.3013 33.6202 28.4317 31.4898 28.4317 28.8712V13.1038C28.4317 12.627 28.0451 12.2403 27.5683 12.2403Z" fill="white"/>
<path d="M34.2177 0.780548C33.1768 -0.260395 31.4832 -0.25997 30.4431 0.780548L15.653 15.571C15.6332 15.5908 15.4102 15.8227 15.3524 15.9526L13.3042 20.5541C13.1588 20.8807 13.2296 21.2631 13.4825 21.5158C13.6478 21.681 13.8687 21.7687 14.0934 21.7687C14.2119 21.7687 14.3312 21.7442 14.4442 21.6939L19.0457 19.6458C19.1751 19.5882 19.4073 19.365 19.4273 19.3452L34.2177 4.55524C34.722 4.05096 34.9998 3.38064 34.9998 2.66768C34.9998 1.95479 34.722 1.28433 34.2177 0.780548ZM32.9967 3.33383L18.2062 18.1243C18.2037 18.1269 18.2023 18.1298 18.1999 18.1319L15.7963 19.2019L16.8663 16.7984C16.8685 16.7959 16.8714 16.7945 16.8739 16.792L31.6641 2.0016C32.0203 1.64526 32.6413 1.64569 32.9968 2.00196C33.1748 2.17945 33.2729 2.416 33.2729 2.66768C33.2729 2.91936 33.1747 3.15583 32.9967 3.33383Z" fill="white"/>
<rect x="6" y="13" width="8" height="2" rx="1" fill="white"/>
<rect x="6" y="24" width="17" height="2" rx="1" fill="white"/>
<rect x="6" y="17" width="6" height="2" rx="1" fill="white"/>
</svg>
