<svg width="39" height="34" viewBox="0 0 39 34" fill="none" xmlns="http://www.w3.org/2000/svg">
<path d="M34.2824 2.31037C32.4872 0.825151 30.1817 0.00893088 27.7919 0.00893088C25.0317 0.00893088 22.3597 1.10649 20.4623 3.02354C20.1213 3.36868 19.8015 3.73917 19.5013 4.14155C17.1778 1.04924 13.2954 -0.537396 9.45562 0.164324C6.26926 0.742547 3.76417 2.49358 2.01478 5.36506C-0.45351 9.41917 -0.655519 13.3293 1.41774 16.9876C2.52594 18.9447 3.96372 20.852 5.81371 22.8181C9.20208 26.4199 13.2128 29.8385 18.4365 33.5729C18.7702 33.8125 19.1276 33.9335 19.5005 33.9335C20.0746 33.9335 20.4623 33.6432 20.6545 33.5009C25.3678 30.1354 29.0702 27.0333 32.3073 23.7333C34.1148 21.8915 36.1659 19.6276 37.6659 16.8003C38.3087 15.5923 39.0415 13.9664 38.9982 12.1091C38.9017 8.11224 37.3158 4.81546 34.2824 2.31037ZM35.2107 15.4966C33.8751 18.0107 31.9908 20.0856 30.3224 21.7851C27.329 24.8374 23.9063 27.726 19.4956 30.9108C14.6956 27.4381 10.9801 24.2493 7.83954 20.9092C6.14412 19.1075 4.83474 17.3761 3.83614 15.6136C2.25522 12.8247 2.43107 10.026 4.39065 6.81021C5.70903 4.64453 7.58028 3.32779 9.95369 2.89678C10.4084 2.81335 10.8689 2.77246 11.3228 2.77246C14.1362 2.77246 16.6282 4.32639 18.0357 7.02449L18.2745 7.47513C18.5199 7.93558 19.0253 8.19729 19.5242 8.20956C20.0468 8.19975 20.5187 7.90123 20.7486 7.43178C21.2425 6.42419 21.7815 5.64231 22.4391 4.97658C23.818 3.58541 25.7685 2.78637 27.7919 2.78637C29.5364 2.78637 31.2122 3.37768 32.5118 4.45234C34.9293 6.44872 36.1414 8.97589 36.2191 12.1721C36.2461 13.3784 35.7251 14.5283 35.2107 15.4966Z" fill="#015543"/>
</svg>
