<svg width="24" height="21" viewBox="0 0 24 21" fill="none" xmlns="http://www.w3.org/2000/svg">
<path d="M21.0969 1.42177C19.9921 0.507785 18.5733 0.00549592 17.1027 0.00549592C15.4041 0.00549592 13.7598 0.680918 12.5922 1.86064C12.3823 2.07303 12.1855 2.30103 12.0008 2.54865C10.571 0.645687 8.18181 -0.330705 5.81884 0.101122C3.858 0.456952 2.31641 1.53451 1.23986 3.30158C-0.279083 5.79641 -0.403397 8.20267 0.872457 10.4539C1.55442 11.6583 2.43922 12.832 3.57767 14.0419C5.66282 16.2584 8.13098 18.3622 11.3455 20.6602C11.5509 20.8077 11.7708 20.8822 12.0003 20.8822C12.3536 20.8822 12.5922 20.7035 12.7105 20.6159C15.611 18.5449 17.8894 16.6359 19.8814 14.6051C20.9937 13.4717 22.256 12.0785 23.179 10.3387C23.5746 9.59528 24.0255 8.59473 23.9989 7.45175C23.9395 4.99215 22.9636 2.96336 21.0969 1.42177ZM21.6681 9.5364C20.8462 11.0835 19.6866 12.3604 18.6599 13.4062C16.8179 15.2845 14.7116 17.0622 11.9973 19.022C9.04345 16.885 6.75698 14.9227 4.82433 12.8672C3.781 11.7584 2.97522 10.693 2.3607 9.60837C1.38783 7.89213 1.49604 6.16986 2.70194 4.1909C3.51325 2.85817 4.66479 2.04787 6.12535 1.78263C6.40518 1.7313 6.68854 1.70613 6.96786 1.70613C8.6992 1.70613 10.2327 2.66239 11.0989 4.32276L11.2459 4.60008C11.3969 4.88343 11.7079 5.04449 12.0149 5.05204C12.3365 5.046 12.6269 4.8623 12.7683 4.5734C13.0723 3.95334 13.404 3.47219 13.8087 3.06251C14.6572 2.20641 15.8576 1.71469 17.1027 1.71469C18.1763 1.71469 19.2075 2.07857 20.0072 2.7399C21.495 3.96844 22.2409 5.52362 22.2887 7.4905C22.3053 8.23286 21.9847 8.9405 21.6681 9.5364Z" fill="#FF7783"/>
</svg>
