<svg width="24" height="23" viewBox="0 0 24 23" fill="none">
<path d="M17.2861 0C15.5251 0 13.7165 0.937401 12.5663 2.44648C12.4253 2.63137 12.2183 2.73802 12.0001 2.73802C12 2.73802 12 2.73802 12 2.73802C11.7819 2.73795 11.5747 2.6313 11.4338 2.44641C10.2841 0.937401 8.47525 0 6.71328 0C3.50951 0 1 2.78667 1 6.34419C1 10.8344 4.55776 14.5484 10.846 20.7265C10.8569 20.7372 10.8675 20.7482 10.8778 20.7596L12 22L13.122 20.7596C13.1324 20.7482 13.143 20.7372 13.1539 20.7265C19.4422 14.5493 23 10.8357 23 6.34419C23 2.78667 20.4901 0 17.2861 0Z" fill="#F4F4F4"/>
<path d="M17.0814 0C15.2112 0 13.3639 0.75394 12.0001 2.04715C10.6367 0.753999 8.78888 0 6.91796 0C3.03875 0 0 3.03905 0 6.91861C0 9.08982 0.894164 11.1896 2.81392 13.5267C4.4887 15.5657 6.8204 17.6727 9.93004 20.4245L11.497 21.9845C11.6362 22.1229 11.8181 22.1922 12.0001 22.1922C12.1821 22.1922 12.364 22.1229 12.5032 21.9844L14.0698 20.4244C17.1792 17.6734 19.5106 15.5667 21.1864 13.5267C23.106 11.1897 24 9.08994 24 6.91861C24 3.03905 20.961 0 17.0814 0ZM13.1092 19.3704C13.0987 19.3796 13.0885 19.3892 13.0785 19.3991L12 20.473L10.9212 19.3991C10.9114 19.3892 10.9011 19.3796 10.8907 19.3704C4.84598 14.0216 1.426 10.806 1.426 6.91861C1.426 3.83862 3.83833 1.42606 6.91802 1.42606C8.61176 1.42606 10.3506 2.23764 11.4557 3.54409C11.5912 3.70416 11.7903 3.7965 12 3.79656C12 3.79656 12 3.79656 12.0001 3.79656C12.2098 3.79656 12.4088 3.70422 12.5444 3.54415C13.6501 2.23764 15.3886 1.42606 17.0814 1.42606C20.1613 1.42606 22.5739 3.83862 22.5739 6.91861C22.574 10.8073 19.154 14.0224 13.1092 19.3704Z" fill="#FF7783"/>
</svg>
