<svg width="26" height="29" viewBox="0 0 26 29" fill="none" xmlns="http://www.w3.org/2000/svg">
<path d="M5.5791 20.0234V25H4.37939V20.0234H5.5791ZM8.54932 20.0234L6.62158 22.5459L5.49365 23.7798L5.2749 22.6792L5.99609 21.5854L7.06934 20.0234H8.54932ZM7.13086 25L5.8457 22.7578L6.77881 22.0708L8.54932 25H7.13086ZM11.5776 23.3149H12.7739C12.758 23.6613 12.6646 23.9666 12.4937 24.231C12.3228 24.4953 12.0858 24.7015 11.7827 24.8496C11.4819 24.9954 11.1265 25.0684 10.7163 25.0684C10.3836 25.0684 10.0863 25.0125 9.82422 24.9009C9.56445 24.7892 9.34342 24.6286 9.16113 24.4189C8.98112 24.2093 8.84326 23.9552 8.74756 23.6567C8.65413 23.3582 8.60742 23.0221 8.60742 22.6484V22.3784C8.60742 22.0047 8.65641 21.6686 8.75439 21.3701C8.85465 21.0693 8.99593 20.8141 9.17822 20.6045C9.36279 20.3926 9.58382 20.2308 9.84131 20.1191C10.0988 20.0075 10.3848 19.9517 10.6992 19.9517C11.1322 19.9517 11.4979 20.0291 11.7964 20.1841C12.0949 20.339 12.3262 20.5521 12.4902 20.8232C12.6543 21.0921 12.7511 21.3986 12.7808 21.7427H11.5845C11.5799 21.5558 11.548 21.3997 11.4888 21.2744C11.4295 21.1468 11.3361 21.0511 11.2085 20.9873C11.0809 20.9235 10.9111 20.8916 10.6992 20.8916C10.5511 20.8916 10.4224 20.9189 10.313 20.9736C10.2036 21.0283 10.1125 21.1149 10.0396 21.2334C9.96663 21.3519 9.91195 21.5057 9.87549 21.6948C9.84131 21.8817 9.82422 22.1073 9.82422 22.3716V22.6484C9.82422 22.9128 9.84017 23.1383 9.87207 23.3252C9.90397 23.512 9.95524 23.6647 10.0259 23.7832C10.0965 23.9017 10.1877 23.9894 10.2993 24.0464C10.4132 24.1011 10.5522 24.1284 10.7163 24.1284C10.8986 24.1284 11.0524 24.0999 11.1777 24.043C11.3031 23.9837 11.3999 23.8949 11.4683 23.7764C11.5366 23.6556 11.5731 23.5018 11.5776 23.3149ZM15.4502 21.0693L14.2368 25H12.9482L14.7769 20.0234H15.5938L15.4502 21.0693ZM16.4551 25L15.2383 21.0693L15.0811 20.0234H15.9082L17.7471 25H16.4551ZM16.4072 23.144V24.0703H13.854V23.144H16.4072ZM21.4009 24.0771V25H18.8853V24.0771H21.4009ZM19.3125 20.0234V25H18.1128V20.0234H19.3125Z" fill="#3A3A3A"/>
<rect x="1" y="17.5" width="24" height="10" rx="2" stroke="#3A3A3A" stroke-width="2"/>
<path d="M5.50038 17.4933C4.50033 14.9933 2 10.9957 5.99991 5.99574C6.20555 5.0065 7 11.5 10.5 11.1941C14 10.8883 10.5 8.5 11 5.5C11.6083 1.85011 14 0.999836 15.5 1C12.9414 5.99571 16.3095 11.3492 18.5 11.1941C20.6905 11.0391 20 6.00097 21 6.99931C24.5 9.99928 24 16.9933 22.5 17.4933" stroke="#3A3A3A" stroke-width="2" stroke-linecap="round"/>
</svg>
