<svg width="79" height="76" viewBox="0 0 79 76" fill="none" xmlns="http://www.w3.org/2000/svg">
<path d="M2.40854 75.2522H64.7897C72.5644 75.2522 78.9711 68.9997 79 61.2249C79.0193 53.4501 72.6993 47.1108 64.9342 47.1108H2.40854C1.07902 47.1108 0 48.1899 0 49.5194V50.4828C0 51.8123 1.07902 52.8913 2.40854 52.8913H64.9342C67.5836 52.8913 69.9536 54.1438 71.4661 56.0899C72.5838 57.5157 73.2388 59.3173 73.2195 61.2633C73.2003 63.142 72.5452 64.8665 71.4661 66.2442C69.9247 68.2095 67.5065 69.4716 64.8283 69.4716H2.40854C1.07902 69.4716 0 70.5506 0 71.8801V72.8436C0 74.1732 1.07902 75.2522 2.40854 75.2522Z" fill="#59B7B3"/>
<path d="M29.0181 44.2207C22.5247 43.4982 17.4379 36.6675 17.4474 28.3436C17.4474 19.538 23.1413 12.3991 30.1645 12.3991C30.7536 12.3991 31.3336 12.4499 31.9018 12.5478C31.8872 12.7847 31.8782 13.0222 31.8748 13.2601L34.3746 13.2951L34.7883 12.3506C34.7867 12.3689 34.7852 12.3872 34.7838 12.4055C34.7544 12.7198 34.7386 13.0157 34.734 13.3001C34.7313 13.4671 34.7325 13.6301 34.737 13.7904L34.8063 16.2134M29.0181 44.2207C29.3937 44.2592 43.6331 44.2592 44.0088 44.2207C50.5022 43.4982 55.5891 36.6675 55.5891 28.3436C55.5891 19.538 49.8953 12.3991 42.872 12.3991C41.7999 12.3991 40.7572 12.5658 39.7614 12.8782C39.7343 13.1711 39.7285 13.4183 39.735 13.6476L38.7418 13.676L38.7413 13.676L37.236 13.719L37.0736 12.6052L36.9118 12.5926C36.8904 12.8376 36.8778 13.0836 36.8743 13.3301L36.8688 13.7295L36.8327 16.3043M29.0181 44.2207L29.2726 41.7337C29.2505 41.7314 29.2365 41.7299 29.2331 41.729M29.0181 44.2207L29.2946 41.7361C29.2741 41.7338 29.2536 41.7314 29.2331 41.729M36.8327 16.3043L35.4681 16.5033M36.8327 16.3043L37.5968 16.1928C38.2999 16.0903 38.9723 15.8876 39.6002 15.6085L39.6032 15.6072C40.6387 15.1453 41.7379 14.8991 42.872 14.8991C48.0167 14.8991 53.0891 20.3616 53.0891 28.3436C53.0891 35.8175 48.592 41.1539 43.794 41.7289M36.8327 16.3043L36.8216 17.096L35.4681 16.5033M35.4681 16.5033L34.8063 16.2134M35.4681 16.5033L34.8173 16.5982L34.8063 16.2134M34.8063 16.2134L33.3717 15.5851C32.3487 15.1371 31.2729 14.8991 30.1645 14.8991C25.0199 14.8991 19.9474 20.3617 19.9474 28.3436V28.3465C19.9388 35.8181 24.4352 41.1541 29.2331 41.729M40.0395 2.83242L40.8371 4.03785L40.8379 4.03915L41.419 4.91735C41.3714 4.94883 41.324 4.97609 41.2769 4.99959L40.6956 4.12221L40.6946 4.12076L40.1134 3.24366C37.4924 4.98039 35.6658 7.82424 35.013 10.8517C34.9015 10.8067 34.7894 10.7631 34.6767 10.721C35.3803 7.55236 37.2771 4.66643 40.0395 2.83242ZM40.0395 2.83242L40.839 4.03671L40.8399 4.03801L41.4222 4.91519C41.3756 4.94614 41.3293 4.97748 41.2833 5.0092L41.4943 5.32767M40.0395 2.83242C40.6947 2.39889 41.6388 2.70718 42.0145 3.35267C42.4192 4.04633 42.1398 4.89413 41.4943 5.32767M41.4943 5.32767L41.2813 5.01055C39.1709 6.46592 37.7001 8.71847 37.1328 11.193C37.2632 11.1593 37.3966 11.1139 37.532 11.0559C38.1097 8.75897 39.5353 6.62574 41.4943 5.32767ZM29.2331 41.729C29.2258 41.7269 29.266 41.7275 29.3768 41.729C29.4633 41.7301 29.5926 41.7319 29.7758 41.7334C30.1956 41.737 30.7792 41.74 31.4747 41.7424C32.8644 41.7472 34.6882 41.7496 36.5134 41.7496C38.3386 41.7496 40.1624 41.7472 41.5522 41.7424C42.2477 41.74 42.8313 41.737 43.2511 41.7334C43.4344 41.7319 43.5638 41.7301 43.6502 41.729C43.7603 41.7275 43.8007 41.727 43.794 41.7289M43.794 41.7289C43.7735 41.7314 43.7529 41.7338 43.7323 41.7361L44.0088 44.2206L43.7544 41.7337C43.7768 41.7314 43.7908 41.7299 43.794 41.7289ZM36.9124 12.5862C36.9301 12.3854 36.9538 12.1852 36.9833 11.9861L37.0731 12.6015L36.9124 12.5862Z" stroke="#59B7B3" stroke-width="5"/>
<path d="M30.8967 10.7805C32.1202 10.9153 33.1703 9.88448 33.0258 8.66094C32.7079 5.78997 31.0508 1.0596 23.7481 0.0191167C22.515 -0.154298 21.4359 0.876556 21.5612 2.11936C21.8598 5.06741 23.488 9.94229 30.8967 10.7805Z" fill="#59B7B3"/>
</svg>
