<svg width="36" height="46" viewBox="0 0 36 46" fill="none" xmlns="http://www.w3.org/2000/svg">
<path d="M18.908 44.1063L18.6097 44.0467L18.3117 44.1081C12.6234 45.2795 9.09259 43.7034 6.91198 41.0864C4.63389 38.3525 3.61426 34.2236 3.61426 29.9854C3.61426 25.9813 5.44838 22.2233 8.11573 20.1622C9.43436 19.1432 10.9346 18.5523 12.521 18.5033C14.1009 18.4546 15.8749 18.9399 17.7549 20.254L18.5488 20.8089L19.3812 20.3137C23.5024 17.8618 26.9513 18.4099 29.3952 20.3161C31.9411 22.3016 33.6143 25.9377 33.6143 29.9854C33.6143 34.251 32.6792 38.3734 30.4517 41.097C28.3293 43.6922 24.8104 45.285 18.908 44.1063Z" stroke="#015543" stroke-width="3"/>
<path d="M18.4846 19.2674C18.4846 19.2674 18.4628 15.6286 19.3595 13.6147C20.2563 11.6008 22.9751 9.18233 22.9751 9.18233" stroke="#015543" stroke-width="3" stroke-linecap="round"/>
<path d="M8.15491 12.1038L8.15488 12.1038C7.55464 11.3439 6.78305 10.5349 6.02103 9.75112C5.89407 9.62053 5.76732 9.49059 5.64125 9.36134C4.99616 8.7 4.36888 8.05692 3.82187 7.43891C3.15711 6.68787 2.68729 6.05655 2.46115 5.56157C2.35058 5.31953 2.32889 5.17431 2.32999 5.10553C2.33063 5.06548 2.33514 5.06054 2.35187 5.04222L2.35234 5.0417C2.46649 4.9167 2.84932 4.71031 3.69118 4.64502C4.47776 4.58402 5.47354 4.66191 6.54657 4.87591C8.71962 5.30929 10.9621 6.24862 12.2276 7.40426C13.5734 8.63314 14.467 10.0285 14.8556 11.2501C15.2536 12.5011 15.0741 13.36 14.6539 13.8202C14.1995 14.3178 13.2133 14.6544 11.9094 14.4301C10.6467 14.2128 9.24283 13.4811 8.15491 12.1038Z" stroke="#015543" stroke-width="2"/>
</svg>
