<svg width="24" height="31" viewBox="0 0 24 31" fill="none" xmlns="http://www.w3.org/2000/svg">
<mask id="path-1-inside-1_254_129" fill="white">
<path d="M24 15.3232C24 17.2931 23.6896 19.2436 23.0866 21.0635C22.4835 22.8834 21.5996 24.537 20.4853 25.9298C19.371 27.3227 18.0481 28.4276 16.5922 29.1814C15.1363 29.9353 13.5759 30.3232 12 30.3232C10.4241 30.3232 8.86371 29.9353 7.4078 29.1814C5.95189 28.4276 4.62902 27.3227 3.51472 25.9298C2.40042 24.537 1.5165 22.8834 0.913445 21.0635C0.310389 19.2436 -1.37766e-07 17.2931 0 15.3232L12 15.3232L24 15.3232Z"/>
</mask>
<path d="M24 15.3232C24 17.2931 23.6896 19.2436 23.0866 21.0635C22.4835 22.8834 21.5996 24.537 20.4853 25.9298C19.371 27.3227 18.0481 28.4276 16.5922 29.1814C15.1363 29.9353 13.5759 30.3232 12 30.3232C10.4241 30.3232 8.86371 29.9353 7.4078 29.1814C5.95189 28.4276 4.62902 27.3227 3.51472 25.9298C2.40042 24.537 1.5165 22.8834 0.913445 21.0635C0.310389 19.2436 -1.37766e-07 17.2931 0 15.3232L12 15.3232L24 15.3232Z" stroke="#3A3A3A" stroke-width="4" mask="url(#path-1-inside-1_254_129)"/>
<path d="M13.5304 26.6916C13.4584 26.7108 13.4151 26.6082 13.4789 26.5698C14.1235 26.1819 15.3561 25.4118 16.041 24.7991C16.6894 24.2189 17.5045 23.1757 17.9022 22.6481C17.9719 22.5556 18.1222 22.6116 18.114 22.7271V22.7271C18.1129 22.7437 18.1085 22.7592 18.1003 22.7737C17.9928 22.9659 17.1754 24.4022 16.3725 25.1231C15.44 25.9602 13.5985 26.666 13.5352 26.6901C13.5332 26.6909 13.5325 26.691 13.5304 26.6916V26.6916Z" fill="#3A3A3A"/>
<mask id="path-3-inside-2_254_129" fill="white">
<path d="M2 17.3232C2 16.01 2.25866 14.7097 2.7612 13.4964C3.26375 12.2832 4.00035 11.1808 4.92893 10.2522C5.85752 9.32359 6.95991 8.58699 8.17317 8.08445C9.38642 7.5819 10.6868 7.32324 12 7.32324C13.3132 7.32324 14.6136 7.5819 15.8268 8.08445C17.0401 8.587 18.1425 9.32359 19.0711 10.2522C19.9997 11.1808 20.7362 12.2832 21.2388 13.4964C21.7413 14.7097 22 16.01 22 17.3232L12 17.3232L2 17.3232Z"/>
</mask>
<path d="M2 17.3232C2 16.01 2.25866 14.7097 2.7612 13.4964C3.26375 12.2832 4.00035 11.1808 4.92893 10.2522C5.85752 9.32359 6.95991 8.58699 8.17317 8.08445C9.38642 7.5819 10.6868 7.32324 12 7.32324C13.3132 7.32324 14.6136 7.5819 15.8268 8.08445C17.0401 8.587 18.1425 9.32359 19.0711 10.2522C19.9997 11.1808 20.7362 12.2832 21.2388 13.4964C21.7413 14.7097 22 16.01 22 17.3232L12 17.3232L2 17.3232Z" stroke="#3A3A3A" stroke-width="4" mask="url(#path-3-inside-2_254_129)"/>
<circle cx="14" cy="12.3232" r="1" fill="#3A3A3A"/>
<circle cx="9" cy="13.3232" r="1" fill="#3A3A3A"/>
<rect x="17" y="11.1338" width="9.53776" height="2" rx="1" transform="rotate(-56.0513 17 11.1338)" fill="#3A3A3A"/>
<rect x="15.7412" y="9.73438" width="7.59076" height="2" rx="1" transform="rotate(-65.1738 15.7412 9.73438)" fill="#3A3A3A"/>
</svg>
