<svg width="25" height="25" viewBox="0 0 25 25" fill="none" xmlns="http://www.w3.org/2000/svg">
<path d="M12.8927 0.00999879C12.816 0.00575688 12.74 0 12.6627 0C12.6427 0 12.6227 0.00242395 12.6027 0.00272694C12.5685 0.00242395 12.5345 0 12.5 0C5.6075 0 0 5.6075 0 12.4997C0 19.3925 5.6075 25 12.5 25C19.3925 25 25 19.3925 25 12.4997C25 5.7393 19.6037 0.218458 12.8927 0.00999879ZM12.696 23.1681C12.6848 23.1684 12.6742 23.1699 12.663 23.1699C12.6518 23.1699 12.6409 23.1684 12.63 23.1681H12.696ZM11.5907 22.933C10.3281 22.3727 9.21828 20.8517 8.462 18.7795C9.44795 18.5384 10.5008 18.3817 11.5907 18.3196V22.933ZM11.5907 16.5001C10.3245 16.5671 9.09617 16.7516 7.94328 17.0413C7.67543 15.9178 7.50303 14.6916 7.44667 13.409H11.5907V16.5001ZM7.44607 11.591C7.50757 10.173 7.71179 8.82469 8.02903 7.60665C9.15495 7.88238 10.3536 8.05569 11.5907 8.11992V11.591H7.44607ZM11.5907 6.29893C10.5551 6.23803 9.54521 6.09078 8.5929 5.86535C9.34341 3.96922 10.3987 2.58332 11.5907 2.0549V6.29893ZM13.4087 8.13598C14.7579 8.0869 16.069 7.90571 17.2958 7.60453C17.6133 8.82317 17.8178 10.1721 17.8793 11.591H13.4087V8.13598ZM13.4087 6.3159V1.9331C14.7352 2.3382 15.9169 3.80166 16.7352 5.87353C15.6878 6.12047 14.5661 6.27045 13.4087 6.3159ZM17.2534 2.93752C18.2032 3.41171 19.0722 4.02315 19.8358 4.74579C19.4113 4.96728 18.9583 5.16725 18.4823 5.34511C18.1342 4.44764 17.7209 3.63895 17.2534 2.93752ZM6.84462 5.34117C6.28803 5.13423 5.76627 4.89638 5.2836 4.63247C6.14653 3.84044 7.13944 3.18961 8.22628 2.71331C7.69604 3.46322 7.23034 4.34765 6.84462 5.34117ZM6.28197 7.0749C5.91625 8.4517 5.68901 9.97485 5.62689 11.5907H1.85947C2.03642 9.50218 2.81572 7.58363 4.02436 6.00927C4.71064 6.42043 5.46903 6.77645 6.28197 7.0749ZM5.6272 13.409C5.68507 14.8924 5.88262 16.2959 6.19834 17.5809C5.33814 17.9024 4.54369 18.2884 3.83257 18.7323C2.73361 17.2082 2.02703 15.3848 1.85947 13.4093L5.6272 13.409ZM6.72252 19.3198C7.13368 20.4548 7.64635 21.458 8.23961 22.2931C7.03854 21.7686 5.95231 21.0299 5.02878 20.1248C5.54509 19.8215 6.11471 19.5534 6.72252 19.3198ZM13.4087 23.0548V18.3026C14.6104 18.3511 15.776 18.5153 16.8625 18.782C16.042 21.0293 14.8049 22.6279 13.4087 23.0548ZM13.4087 16.4816V13.409H17.8787C17.8224 14.6882 17.6509 15.9111 17.3843 17.0319C16.1371 16.7198 14.7988 16.531 13.4087 16.4816ZM19.6985 13.409H23.1405C22.9784 15.3239 22.3097 17.0961 21.2677 18.5914C20.6139 18.2014 19.8973 17.8609 19.1289 17.5733C19.4437 16.2898 19.6403 14.8888 19.6985 13.409ZM19.6988 11.591C19.6364 9.97485 19.4095 8.4517 19.0438 7.0746C19.7694 6.80827 20.4505 6.49527 21.0762 6.13956C22.2282 7.68876 22.9684 9.56005 23.1405 11.591H19.6988V11.591ZM17.2412 22.0688C17.7688 21.2808 18.2278 20.356 18.6026 19.3216C19.1307 19.5243 19.6288 19.7543 20.0885 20.0097C19.2631 20.8432 18.3017 21.5407 17.2412 22.0688Z" fill="#3A3A3A"/>
</svg>
