<svg width="25" height="26" viewBox="0 0 25 26" fill="none" xmlns="http://www.w3.org/2000/svg">
<rect x="9" y="1" width="7" height="7" rx="3.5" stroke="#3A3A3A" stroke-width="2"/>
<path d="M5.56348 8H19.0022C19.967 8 20.7943 8.68881 20.9691 9.63768L23.3638 22.6377C23.5902 23.8667 22.6466 25 21.3969 25H3.51085C2.28189 25 1.34365 23.902 1.53532 22.6881L3.58796 9.68807C3.74145 8.71597 4.57933 8 5.56348 8Z" stroke="#3A3A3A" stroke-width="2"/>
<path d="M9.03027 13.6016V20H7.48779V13.6016H9.03027ZM12.8491 13.6016L10.3706 16.8447L8.92041 18.4312L8.63916 17.0161L9.56641 15.6099L10.9463 13.6016H12.8491ZM11.0254 20L9.37305 17.1172L10.5728 16.2339L12.8491 20H11.0254ZM18.3379 16.5811V19.209C18.2295 19.3291 18.0625 19.458 17.8369 19.5957C17.6143 19.7305 17.333 19.8462 16.9932 19.9429C16.6533 20.0396 16.2534 20.0879 15.7935 20.0879C15.3687 20.0879 14.9834 20.0205 14.6377 19.8857C14.292 19.748 13.9946 19.5474 13.7456 19.2837C13.4995 19.0171 13.3091 18.6919 13.1743 18.3081C13.0425 17.9214 12.9766 17.479 12.9766 16.981V16.625C12.9766 16.127 13.0439 15.6846 13.1787 15.2979C13.3135 14.9111 13.5024 14.5859 13.7456 14.3223C13.9917 14.0557 14.2803 13.8535 14.6113 13.7158C14.9453 13.5781 15.3115 13.5093 15.71 13.5093C16.2988 13.5093 16.7778 13.603 17.147 13.7905C17.5161 13.9751 17.7959 14.2314 17.9863 14.5596C18.1768 14.8848 18.2925 15.2612 18.3335 15.689H16.8525C16.8232 15.478 16.7676 15.2993 16.6855 15.1528C16.6064 15.0034 16.4922 14.8906 16.3428 14.8145C16.1934 14.7354 16 14.6958 15.7627 14.6958C15.5781 14.6958 15.4097 14.7354 15.2573 14.8145C15.1079 14.8936 14.9805 15.0137 14.875 15.1748C14.7695 15.333 14.6875 15.5322 14.6289 15.7725C14.5732 16.0127 14.5454 16.2939 14.5454 16.6162V16.981C14.5454 17.3003 14.5718 17.5801 14.6245 17.8203C14.6802 18.0605 14.7622 18.2612 14.8706 18.4224C14.9819 18.5806 15.1226 18.7007 15.2925 18.7827C15.4653 18.8618 15.6689 18.9014 15.9033 18.9014C16.0674 18.9014 16.208 18.8882 16.3252 18.8618C16.4424 18.8325 16.5391 18.7974 16.6152 18.7563C16.6943 18.7124 16.7544 18.6714 16.7954 18.6333V17.6401H15.7231V16.5811H18.3379Z" fill="#3A3A3A"/>
</svg>
